<?xml version="1.0" standalone="no"?>
<!DOCTYPE svg PUBLIC "-//W3C//DTD SVG 20010904//EN"
 "http://www.w3.org/TR/2001/REC-SVG-20010904/DTD/svg10.dtd">
<svg version="1.0" xmlns="http://www.w3.org/2000/svg"
 width="1024.000000pt" height="1024.000000pt" viewBox="0 0 1024.000000 1024.000000"
 preserveAspectRatio="xMidYMid meet">
<metadata>
Created by potrace 1.16, written by Peter Selinger 2001-2019
</metadata>
<g transform="translate(0.000000,1024.000000) scale(0.100000,-0.100000)"
fill="#000000" stroke="none">
<path d="M5292 9353 c-15 -22 -21 -51 -25 -133 -7 -152 -65 -360 -187 -680
-26 -69 -64 -174 -83 -235 -19 -60 -45 -135 -57 -165 -24 -61 -76 -300 -86
-394 -5 -47 2 -107 30 -261 31 -172 46 -242 60 -290 24 -82 54 -206 85 -350
29 -130 66 -259 93 -317 l31 -68 48 0 47 0 31 87 c34 92 34 117 3 183 -28 57
-22 304 12 505 15 88 29 177 32 198 l6 38 38 -78 c63 -128 121 -263 150 -348
16 -44 35 -96 43 -115 8 -20 18 -69 22 -110 7 -70 6 -74 -9 -54 -14 19 -20 21
-57 13 -46 -11 -88 -38 -89 -57 0 -7 7 -23 15 -36 9 -13 19 -55 22 -93 5 -65
-11 -447 -24 -545 -5 -45 -7 -48 -42 -53 -20 -3 -117 -22 -216 -42 -99 -19
-234 -45 -300 -58 -116 -22 -281 -62 -433 -103 -116 -32 -135 -50 -172 -162
-21 -61 -22 -77 -17 -270 6 -207 11 -267 49 -597 11 -100 18 -188 15 -196 -3
-8 -19 -17 -37 -20 -41 -9 -116 -87 -158 -164 -49 -92 -82 -228 -89 -368 -5
-107 -3 -129 17 -197 26 -89 51 -111 97 -87 49 25 183 172 221 240 33 61 67
98 79 86 12 -13 32 -441 38 -820 3 -236 10 -477 16 -535 5 -59 12 -148 16
-198 l6 -90 -128 19 c-147 22 -141 24 -160 -68 l-10 -50 -75 -8 c-112 -11
-397 -56 -465 -74 -163 -40 -267 -100 -293 -167 -15 -37 -14 -41 7 -82 30 -55
110 -108 216 -141 44 -14 103 -34 130 -44 101 -37 366 -102 490 -120 39 -6 97
-15 130 -20 150 -22 636 -60 943 -73 228 -10 749 22 1060 64 185 26 306 50
502 99 91 23 203 50 250 61 99 21 210 59 295 102 33 16 109 43 168 58 60 16
114 34 121 39 16 13 109 6 216 -16 102 -21 361 -96 438 -128 34 -14 91 -32
125 -40 81 -19 207 -60 277 -90 57 -25 324 -104 420 -124 30 -7 73 -16 95 -21
22 -5 78 -19 125 -29 159 -38 413 -51 569 -31 72 10 222 51 249 68 8 6 12 24
10 49 l-3 41 -120 -36 c-119 -35 -122 -35 -315 -36 -160 0 -216 4 -310 21
-247 47 -409 88 -605 155 -268 92 -534 177 -645 208 -63 17 -124 35 -135 40
-25 11 -129 38 -215 56 -80 16 -162 18 -177 3 -11 -11 -44 -19 -163 -39 -35
-6 -70 -16 -76 -21 -9 -7 -14 -2 -19 20 -4 18 -26 48 -55 74 -71 64 -208 110
-505 171 -71 15 -130 28 -131 29 -9 10 -26 383 -34 732 -9 374 -20 682 -47
1313 -6 149 -6 152 14 152 14 0 23 9 27 26 13 51 26 386 26 687 l0 308 39 -32
c24 -19 46 -29 55 -26 9 4 16 2 16 -3 0 -6 7 -10 15 -10 8 0 15 -4 15 -8 0 -5
17 -14 39 -20 83 -25 118 -8 90 46 -31 60 -103 148 -142 174 -45 30 -63 35
-51 16 5 -7 2 -9 -9 -5 -8 3 -32 9 -51 12 -31 6 -34 9 -25 26 5 11 7 24 4 30
-4 5 1 22 10 36 14 21 17 43 13 115 -4 86 -5 89 -39 117 -19 16 -68 40 -109
52 -138 44 -467 31 -967 -36 l-43 -6 0 238 0 239 49 18 c27 9 56 25 64 34 18
21 64 171 72 237 3 28 8 61 10 75 30 207 30 372 0 530 -59 307 -90 437 -129
540 -8 19 -24 71 -36 115 -12 44 -28 98 -35 120 -8 22 -18 65 -25 95 -6 30
-28 111 -50 180 -21 69 -45 157 -54 195 -17 76 -50 307 -61 420 -4 39 -8 77
-10 85 -1 8 -8 58 -15 110 -7 52 -17 101 -22 108 -18 21 -55 14 -76 -15z m38
-442 c0 -16 7 -61 15 -100 8 -39 17 -84 20 -101 14 -78 36 -170 54 -225 10
-33 29 -105 41 -160 12 -55 41 -160 66 -233 48 -144 55 -168 116 -402 47 -181
61 -244 79 -360 25 -159 13 -540 -17 -540 -8 0 -14 -10 -14 -26 0 -14 -4 -23
-9 -20 -5 3 -12 43 -16 88 -10 114 -64 291 -129 423 -74 148 -154 349 -162
407 -9 65 -40 98 -93 98 -36 0 -40 -3 -51 -36 -8 -24 -10 -64 -6 -117 9 -103
-8 -331 -34 -458 -12 -62 -20 -144 -21 -228 -1 -130 -10 -166 -24 -93 -4 20
-24 98 -45 172 -21 74 -50 189 -65 255 -15 66 -36 156 -46 200 -56 242 -47
371 46 650 13 39 31 97 41 130 18 63 111 303 124 320 4 6 21 62 39 125 53 192
75 260 83 260 4 0 8 -13 8 -29z m1266 -2923 c49 -11 91 -22 93 -24 7 -6 -69
-99 -105 -128 -50 -40 -99 -59 -279 -109 -88 -25 -216 -62 -285 -82 -111 -34
-298 -81 -387 -98 l-33 -6 0 72 c0 39 3 129 7 198 l6 127 46 6 c25 3 143 15
261 27 118 11 238 24 265 29 99 16 316 9 411 -12z m-1160 -195 c-12 -219 -18
-261 -34 -268 -19 -7 -369 -8 -381 -1 -5 3 -30 8 -57 11 -27 3 -74 7 -104 11
-80 8 -256 43 -309 61 -25 8 -68 29 -94 46 l-49 30 62 23 c88 32 209 59 416
94 100 16 220 39 265 50 180 45 240 58 268 59 l24 1 -7 -117z m1107 -385 c4
-161 14 -399 22 -528 8 -129 17 -316 20 -415 4 -99 8 -186 11 -193 2 -8 9
-289 14 -625 10 -598 23 -1036 36 -1207 l7 -86 -74 4 c-63 3 -78 1 -99 -16
-22 -17 -23 -23 -12 -46 14 -32 39 -42 156 -67 49 -10 95 -24 103 -31 21 -21
-29 -69 -122 -118 -44 -24 -93 -50 -110 -60 -45 -26 -283 -95 -450 -130 -191
-40 -696 -51 -905 -21 -268 39 -442 90 -593 174 -59 34 -207 159 -207 177 0 6
179 28 258 31 13 1 21 3 18 6 -2 3 -1 16 5 30 5 15 5 66 -1 136 -21 247 -30
489 -40 1062 -6 330 -13 624 -16 653 l-6 53 38 -20 c44 -24 92 -27 117 -8 15
11 69 207 108 392 7 33 13 62 14 65 1 3 5 27 9 53 5 27 12 45 16 40 4 -4 19
-48 33 -98 37 -133 123 -307 193 -392 35 -42 38 -44 86 -41 l50 3 23 60 c13
33 36 119 51 190 38 183 35 179 69 117 21 -39 36 -54 62 -63 36 -11 113 -5
146 13 13 6 23 5 34 -4 20 -16 63 -84 63 -99 0 -6 13 -39 29 -73 16 -33 36
-84 45 -113 11 -33 30 -63 52 -83 32 -27 41 -30 105 -30 l70 0 59 60 c33 32
60 63 60 68 0 5 10 16 23 24 l22 15 0 -426 0 -426 29 -90 c16 -49 39 -123 51
-163 12 -41 28 -78 36 -83 25 -16 58 -10 72 14 17 27 44 163 53 268 6 70 5 79
-17 108 -28 37 -42 40 -33 6 4 -14 2 -25 -4 -25 -6 0 -16 -32 -23 -71 -13 -74
-22 -74 -34 1 -4 25 -16 62 -26 82 -18 35 -19 66 -19 451 0 404 -1 415 -21
441 -11 14 -29 26 -40 26 -48 0 -144 -71 -178 -131 -26 -45 -61 -63 -106 -55
-25 5 -34 14 -44 44 -7 20 -36 95 -63 166 -77 195 -119 230 -229 191 -24 -9
-54 -13 -67 -10 -26 6 -32 19 -63 135 -25 94 -41 120 -75 120 -41 0 -68 -39
-79 -115 -4 -27 -12 -61 -17 -75 -5 -13 -15 -67 -23 -120 -16 -105 -44 -242
-52 -250 -22 -23 -157 292 -243 568 -16 51 -32 97 -35 102 -10 16 -61 11 -78
-7 -18 -21 -51 -161 -67 -288 -16 -121 -75 -391 -90 -408 -16 -19 -42 23 -55
88 -24 124 -54 170 -142 215 -30 16 -43 28 -43 44 0 11 -7 91 -15 176 -19 208
-45 592 -47 713 -2 118 5 131 59 96 72 -47 187 -81 413 -119 175 -30 306 -39
453 -31 l129 6 -7 -100 c-11 -158 14 -215 95 -215 78 0 100 46 100 207 0 111
9 133 57 133 33 0 147 25 248 55 44 13 145 42 225 65 243 69 283 80 340 99 30
10 60 19 66 20 7 1 13 -89 17 -291z m-2121 -953 c40 -27 68 -92 68 -154 -1
-35 -21 -76 -32 -65 -12 11 -81 -71 -103 -121 -39 -88 -195 -282 -216 -269
-17 10 -10 212 12 309 24 115 40 154 87 223 35 51 100 102 132 102 9 0 32 -11
52 -25z m1 -2132 c-18 -2 -48 -2 -65 0 -18 2 -4 4 32 4 36 0 50 -2 33 -4z
m-166 -150 c22 -45 43 -69 93 -106 36 -27 73 -55 83 -63 22 -18 158 -83 267
-127 105 -43 144 -51 393 -82 163 -21 244 -25 446 -25 136 0 254 2 262 4 8 3
66 10 129 16 192 18 329 46 440 90 25 10 107 44 184 76 129 54 143 62 211 129
40 40 80 84 90 98 21 33 30 33 180 2 88 -18 143 -37 204 -68 78 -39 173 -109
161 -119 -10 -9 -186 -70 -270 -94 -47 -14 -155 -41 -240 -60 -85 -19 -209
-48 -275 -64 -366 -88 -1004 -131 -1500 -100 -527 32 -743 58 -980 115 -55 13
-127 29 -160 35 -105 20 -157 35 -320 98 -82 31 -141 61 -158 79 -34 38 20 79
168 126 100 32 320 74 445 86 52 4 100 9 107 10 6 0 24 -25 40 -56z"/>
<path d="M5671 6925 c0 -42 2 -55 9 -44 6 10 6 34 1 60 l-9 44 -1 -60z"/>
<path d="M6598 1793 c7 -3 16 -2 19 1 4 3 -2 6 -13 5 -11 0 -14 -3 -6 -6z"/>
<path d="M5983 1733 c15 -2 37 -2 50 0 12 2 0 4 -28 4 -27 0 -38 -2 -22 -4z"/>
<path d="M5228 1723 c12 -2 30 -2 40 0 9 3 -1 5 -23 4 -22 0 -30 -2 -17 -4z"/>
<path d="M5338 1723 c12 -2 32 -2 45 0 12 2 2 4 -23 4 -25 0 -35 -2 -22 -4z"/>
<path d="M5718 1723 c12 -2 30 -2 40 0 9 3 -1 5 -23 4 -22 0 -30 -2 -17 -4z"/>
<path d="M5863 1723 c9 -2 25 -2 35 0 9 3 1 5 -18 5 -19 0 -27 -2 -17 -5z"/>
<path d="M5478 1713 c34 -2 90 -2 125 0 34 2 6 3 -63 3 -69 0 -97 -1 -62 -3z"/>
<path d="M9760 80 l0 -80 80 0 80 0 0 80 0 80 -80 0 -80 0 0 -80z"/>
</g>
</svg>
